<?xml version="1.0" standalone="no"?>
<!DOCTYPE svg PUBLIC "-//W3C//DTD SVG 20010904//EN"
 "http://www.w3.org/TR/2001/REC-SVG-20010904/DTD/svg10.dtd">
<svg version="1.0" xmlns="http://www.w3.org/2000/svg"
 width="512.000000pt" height="512.000000pt" viewBox="0 0 512.000000 512.000000"
 preserveAspectRatio="xMidYMid meet">

<g transform="translate(0.000000,512.000000) scale(0.100000,-0.100000)"
fill="#000000" stroke="none">
<path d="M823 4579 c-166 -21 -261 -119 -283 -294 -13 -98 -12 -3360 0 -3449
24 -165 109 -256 265 -285 41 -8 575 -11 1759 -11 1874 0 1782 -3 1877 62 25
17 60 52 77 77 65 95 62 3 62 1877 0 1184 -3 1718 -11 1759 -29 157 -124 243
-291 265 -89 11 -3365 11 -3455 -1z m1714 -270 c27 -11 50 -20 83 -33 44 -17
150 -103 150 -121 0 -8 -80 -93 -177 -189 -98 -96 -280 -275 -404 -398 -251
-247 -307 -300 -400 -373 -80 -63 -119 -103 -184 -190 -16 -22 -32 -42 -35
-45 -3 -3 -14 -22 -25 -42 -11 -21 -23 -38 -27 -38 -5 0 -8 -9 -8 -20 0 -11
-4 -20 -9 -20 -5 0 -12 -12 -15 -26 -4 -14 -15 -45 -25 -68 -27 -62 -42 -112
-51 -169 -5 -29 -11 -61 -15 -72 -5 -17 0 -23 30 -35 21 -8 45 -25 55 -37 10
-13 23 -23 29 -23 14 0 101 -62 101 -72 0 -4 6 -8 13 -8 6 0 34 -17 61 -38 58
-44 95 -69 116 -79 8 -3 17 -9 20 -13 3 -3 23 -19 44 -36 34 -24 39 -26 32 -9
-4 11 -10 41 -13 68 -3 26 -10 47 -14 47 -5 0 -9 15 -9 34 0 19 -4 37 -9 41
-5 3 -12 31 -16 63 -3 31 -10 65 -15 74 -35 64 26 157 102 158 28 0 79 -16 88
-28 7 -9 37 -27 80 -49 19 -9 37 -20 40 -23 3 -4 20 -15 38 -25 17 -11 32 -23
32 -27 0 -4 7 -8 15 -8 9 0 27 -7 41 -16 13 -9 27 -14 30 -12 8 8 -8 88 -17
88 -5 0 -9 11 -9 25 0 14 -4 25 -10 25 -5 0 -10 11 -10 24 0 14 -4 27 -9 31
-6 3 -13 26 -17 50 -3 25 -10 45 -15 45 -5 0 -9 9 -9 20 0 11 -4 28 -9 38 -12
23 -41 121 -41 138 0 8 -6 23 -12 34 -10 15 -10 22 0 32 6 6 12 20 12 30 0 26
31 58 57 58 12 0 25 5 28 10 3 6 15 10 26 10 10 0 19 -4 19 -10 0 -5 10 -10
23 -10 40 0 81 -60 92 -134 4 -25 11 -49 16 -52 5 -3 9 -16 9 -30 0 -13 5 -24
10 -24 6 0 10 -11 10 -24 0 -14 4 -28 10 -31 5 -3 12 -28 16 -56 4 -27 11 -52
15 -55 5 -3 9 -16 9 -30 0 -13 5 -24 10 -24 6 0 10 -8 10 -19 0 -10 7 -35 15
-54 8 -20 15 -50 15 -67 0 -16 5 -30 10 -30 6 0 10 -11 10 -25 0 -14 5 -25 10
-25 6 0 10 16 10 35 0 19 5 35 10 35 6 0 10 6 10 13 0 22 47 41 100 40 l49 -1
-54 53 c-56 55 -115 158 -115 201 0 13 -4 26 -10 29 -5 3 -10 40 -10 81 0 43
4 74 10 74 6 0 10 12 11 28 0 15 9 41 20 57 10 17 22 37 26 45 12 27 77 89
105 101 16 6 28 15 28 19 0 4 19 13 43 21 51 17 233 17 250 0 6 -6 21 -11 34
-11 13 0 23 -4 23 -9 0 -5 8 -12 18 -15 48 -18 122 -79 122 -103 0 -7 5 -13
10 -13 6 0 10 -23 10 -51 0 -49 -3 -54 -51 -100 -28 -26 -59 -51 -70 -54 -10
-4 -19 -11 -19 -16 0 -5 -6 -9 -13 -9 -7 0 -24 -11 -39 -25 -15 -14 -31 -25
-36 -25 -5 0 -19 -11 -32 -25 -13 -14 -29 -25 -37 -25 -7 0 -13 -4 -13 -8 0
-5 -16 -17 -35 -28 -29 -15 -32 -20 -18 -26 23 -9 133 -9 155 0 27 11 108 92
108 108 0 8 5 14 10 14 6 0 10 7 10 15 0 20 46 64 75 71 29 7 82 -15 108 -46
19 -22 23 -89 7 -118 -5 -9 -17 -34 -26 -55 -18 -41 -119 -147 -139 -147 -8 0
-15 -4 -17 -8 -1 -4 -25 -19 -53 -32 -66 -32 -243 -41 -305 -16 -22 9 -40 12
-40 8 0 -4 37 -32 83 -62 45 -30 84 -57 87 -60 3 -3 23 -18 45 -35 22 -16 42
-32 45 -35 3 -4 20 -15 38 -25 17 -11 32 -23 32 -27 0 -4 6 -8 13 -8 7 0 24
-11 39 -25 15 -14 30 -25 33 -25 7 0 72 -47 93 -67 7 -7 16 -13 20 -13 4 0 20
-11 36 -25 16 -14 32 -25 37 -25 4 0 23 -16 43 -36 31 -31 36 -42 36 -85 0
-42 -5 -53 -35 -84 -29 -28 -43 -35 -75 -35 -38 0 -69 12 -95 35 -6 6 -28 21
-48 35 -20 14 -37 28 -37 33 0 4 -6 7 -12 7 -7 0 -28 14 -47 30 -18 17 -36 30
-40 30 -3 0 -19 11 -35 25 -16 14 -32 25 -36 25 -3 0 -15 8 -26 18 -10 10 -49
39 -85 65 l-67 47 6 -47 c3 -27 9 -49 13 -51 5 -2 9 -17 9 -33 0 -16 4 -37 9
-47 12 -23 32 -125 38 -195 5 -56 4 -60 -28 -93 -28 -29 -39 -34 -81 -34 -26
0 -48 3 -48 8 0 4 -18 16 -40 26 -22 10 -47 26 -57 35 -10 10 -25 20 -33 24
-8 4 -28 16 -45 27 -16 11 -46 28 -66 39 -21 11 -44 28 -53 37 -10 9 -19 14
-22 11 -6 -6 28 -140 37 -147 3 -3 9 -16 12 -30 22 -90 33 -129 40 -136 4 -4
7 -16 7 -26 0 -10 4 -26 9 -36 23 -43 43 -136 39 -188 l-3 -56 55 5 c104 9
184 29 242 58 10 5 24 9 31 9 22 0 237 117 257 140 3 3 23 19 44 36 58 43 105
94 199 214 18 24 58 93 64 113 3 9 9 17 14 17 5 0 9 7 9 15 0 8 4 23 9 33 24
44 41 87 41 104 0 10 4 18 8 18 9 0 32 118 39 200 3 30 9 59 14 64 5 6 9 20 9
33 0 13 4 23 9 23 5 0 11 18 15 40 3 23 11 50 16 60 6 11 15 29 20 40 6 11 10
29 10 39 0 11 4 22 9 25 5 4 12 24 16 46 4 22 11 42 16 46 5 3 9 15 9 28 0 12
4 26 8 32 4 5 16 36 27 69 10 33 23 66 29 73 6 9 6 16 0 20 -9 6 -26 35 -55
94 -12 24 -11 118 1 118 6 0 10 10 10 22 0 24 27 123 41 150 5 10 9 27 9 37 0
11 5 23 10 26 6 3 10 14 10 24 0 22 27 113 47 159 14 32 45 43 58 22 3 -5 15
-10 26 -10 14 0 19 -7 19 -30 0 -16 -4 -30 -10 -30 -5 0 -10 -11 -10 -25 0
-13 -4 -34 -9 -47 -5 -13 -17 -50 -26 -83 -9 -33 -21 -68 -26 -77 -12 -24 -12
-88 1 -88 6 0 10 11 10 24 0 14 5 28 10 31 6 3 10 15 10 26 0 10 4 27 9 37 5
9 17 46 26 82 9 36 21 73 26 82 5 10 9 26 9 37 0 41 58 52 99 18 7 -6 26 -10
42 -9 16 2 29 -1 29 -7 0 -6 6 -11 14 -11 8 0 17 -4 20 -9 8 -12 -13 -113 -25
-126 -5 -5 -9 -22 -9 -37 0 -15 -4 -28 -10 -28 -5 0 -10 -11 -10 -24 0 -14 -5
-37 -11 -53 -6 -15 -15 -44 -20 -63 l-8 -35 24 30 c14 16 27 49 31 72 3 24 10
46 15 49 5 3 9 14 9 25 0 10 4 27 9 37 4 9 17 44 27 77 19 58 20 60 53 58 57
-2 66 -20 46 -89 -10 -33 -21 -67 -26 -76 -5 -10 -9 -27 -9 -37 0 -11 -4 -22
-9 -25 -4 -3 -11 -24 -15 -46 -3 -23 -10 -49 -15 -58 -5 -9 -15 -37 -21 -62
-7 -25 -21 -64 -31 -88 -20 -44 -84 -112 -106 -112 -7 0 -13 -4 -13 -9 0 -5
-10 -11 -22 -13 -16 -2 -24 -11 -26 -28 -2 -14 -7 -29 -12 -35 -4 -5 -10 -30
-14 -55 -7 -43 -20 -92 -37 -135 -4 -11 -10 -31 -13 -45 -17 -86 -28 -127 -36
-142 -6 -10 -10 -28 -10 -41 0 -13 -3 -27 -7 -31 -8 -7 -29 -90 -40 -154 -3
-18 -9 -35 -14 -38 -5 -3 -9 -18 -9 -34 0 -16 -4 -32 -10 -35 -5 -3 -10 -17
-10 -30 0 -56 -71 -229 -139 -335 -19 -30 -37 -57 -40 -60 -4 -3 -15 -18 -24
-33 -10 -16 -26 -38 -35 -50 -29 -38 -206 -212 -236 -232 -15 -11 -34 -26 -41
-33 -8 -6 -18 -12 -23 -12 -6 0 -12 -3 -14 -7 -9 -22 -239 -143 -271 -143 -9
0 -19 -5 -22 -10 -3 -6 -16 -10 -29 -10 -12 0 -26 -4 -32 -9 -10 -9 -77 -27
-164 -43 -78 -15 -430 -22 -444 -8 -5 5 -26 10 -45 10 -38 1 -166 31 -177 43
-4 4 -18 7 -31 7 -12 0 -23 3 -23 8 0 4 -27 15 -60 26 -33 10 -60 22 -60 27 0
5 -8 9 -18 9 -9 0 -34 12 -55 26 -26 17 -42 22 -50 16 -7 -6 -34 -12 -62 -15
-156 -17 -252 -30 -270 -38 -11 -4 -40 -10 -65 -13 -25 -3 -94 -12 -155 -21
-194 -28 -225 -30 -225 -8 0 10 7 31 15 47 8 15 15 37 15 47 0 11 4 19 9 19 4
0 11 15 14 33 4 29 31 98 57 147 4 9 11 31 15 50 4 19 11 41 15 50 4 8 13 29
20 45 7 17 16 37 20 46 5 9 12 33 15 53 4 20 11 39 16 42 5 3 9 14 9 24 0 10
5 20 10 22 18 6 14 74 -5 115 -28 55 -54 135 -55 160 0 12 -4 24 -9 27 -5 3
-11 20 -14 38 -4 18 -11 58 -16 88 -12 68 -13 367 -1 435 13 75 21 108 30 130
4 11 16 47 25 80 10 33 21 64 26 70 5 5 9 17 9 27 0 10 5 18 10 18 6 0 10 7
10 16 0 14 27 71 40 84 3 3 12 19 20 35 17 35 62 99 73 103 4 2 7 8 7 14 0 22
103 133 309 332 40 37 78 78 86 89 19 27 19 104 0 137 -8 14 -14 31 -15 38 0
7 54 65 121 130 66 64 188 184 271 266 83 82 167 157 187 167 42 21 154 25
198 8z m188 -619 c101 -18 120 -23 130 -30 6 -4 27 -11 49 -14 21 -4 46 -11
55 -16 9 -5 39 -18 66 -30 103 -45 122 -55 200 -104 44 -28 82 -53 85 -56 3
-3 27 -23 54 -44 68 -55 142 -130 199 -201 26 -33 55 -68 63 -78 7 -9 14 -19
14 -22 0 -2 11 -21 25 -41 15 -23 25 -51 25 -73 0 -21 12 -61 27 -90 l26 -54
-18 -56 c-11 -31 -22 -63 -26 -71 -4 -8 -15 -42 -25 -75 -10 -33 -22 -64 -26
-69 -4 -6 -8 -20 -8 -32 0 -20 -17 -34 -40 -34 -10 0 -26 49 -36 110 -3 24
-10 51 -15 60 -4 8 -20 49 -35 90 -15 41 -30 77 -33 80 -4 3 -15 23 -26 45
-11 22 -23 42 -27 43 -5 2 -8 10 -8 18 0 8 -4 14 -8 14 -4 0 -16 14 -27 32
-10 18 -30 44 -44 59 -14 14 -39 41 -56 60 -33 37 -129 119 -141 119 -3 0 -14
8 -23 18 -9 9 -35 26 -58 37 -24 11 -43 23 -43 28 0 4 -5 7 -12 7 -6 0 -34 11
-62 24 -71 33 -126 52 -236 78 -50 12 -372 15 -435 4 -22 -4 -49 -11 -60 -15
-73 -30 -125 -35 -125 -12 0 3 66 72 147 153 l148 148 145 -1 c80 0 168 -4
195 -9z"/>
<path d="M2865 3037 c-52 -31 -97 -87 -102 -127 -4 -26 -2 -40 6 -40 6 0 11 4
11 8 0 5 16 17 35 28 19 10 35 21 35 25 0 3 16 14 35 25 19 10 35 22 35 26 0
5 4 8 10 8 5 0 19 8 30 17 14 13 17 20 8 30 -13 16 -76 16 -103 0z"/>
<path d="M2765 2510 c3 -5 8 -10 11 -10 2 0 4 5 4 10 0 6 -5 10 -11 10 -5 0
-7 -4 -4 -10z"/>
<path d="M2080 2297 c0 -9 5 -19 10 -22 6 -3 10 -22 10 -41 0 -20 6 -42 14
-50 13 -12 16 -12 28 4 7 11 23 24 36 31 28 15 24 21 -25 46 -21 10 -46 26
-55 34 -16 12 -18 12 -18 -2z"/>
<path d="M1395 2183 c4 -10 12 -43 17 -73 10 -63 22 -100 62 -192 9 -20 16
-43 16 -52 0 -9 5 -16 10 -16 6 0 10 -6 10 -14 0 -8 5 -16 12 -18 7 -3 12 -21
12 -41 0 -32 -6 -51 -34 -107 -4 -9 -11 -31 -15 -50 -4 -19 -11 -41 -15 -50
-4 -8 -13 -27 -19 -42 -6 -16 -15 -38 -21 -50 -5 -13 -14 -40 -19 -62 l-10
-38 32 6 c75 16 145 26 184 26 23 0 45 5 48 10 3 6 24 10 45 10 22 0 60 5 85
12 40 11 49 10 73 -5 15 -10 47 -28 72 -40 25 -12 47 -25 48 -29 2 -5 12 -8
23 -8 10 0 19 -4 19 -10 0 -5 16 -12 35 -16 19 -3 38 -10 41 -15 3 -5 15 -9
28 -9 12 0 26 -4 32 -9 8 -8 85 -25 171 -38 l31 -5 -20 64 c-11 34 -24 72 -28
83 -17 44 -40 128 -40 146 0 10 -4 21 -10 24 -5 3 -10 19 -10 34 0 15 -4 31
-9 37 -4 5 -16 41 -26 79 -9 39 -21 78 -26 87 -5 10 -9 27 -9 37 0 11 -4 23
-10 26 -6 3 -10 -4 -10 -17 0 -14 -14 -38 -33 -56 -28 -28 -40 -32 -85 -32
-29 0 -52 5 -52 10 0 6 -7 10 -15 10 -8 0 -15 3 -15 8 0 4 -16 16 -35 26 -19
11 -35 22 -35 25 0 4 -16 15 -35 25 -19 11 -35 23 -35 28 0 4 -6 8 -13 8 -7 0
-24 10 -38 23 -29 26 -56 44 -84 56 -12 5 -27 16 -34 25 -7 9 -19 16 -25 16
-7 0 -23 11 -36 25 -13 14 -29 25 -37 25 -7 0 -13 3 -13 8 0 4 -16 16 -35 26
-19 11 -35 22 -35 25 0 4 -16 15 -35 25 -19 11 -35 23 -35 28 0 4 -5 8 -11 8
-7 0 -8 -7 -4 -17z"/>
<path d="M2586 2125 c-10 -14 -33 -29 -49 -33 l-31 -8 50 -29 c84 -51 87 -51
81 -8 -10 66 -19 103 -26 103 -3 0 -15 -11 -25 -25z"/>
</g>
</svg>
